# xmcd
#
# Track frame offsets:
#	150
#	14820
#	27028
#	39902
#	52005
#	65127
#	78412
#	88324
#	100165
#	116403
#	132415
#	149082
#	166682
#	180549
#	192521
#	202019
#	214170
#	231229
#	244478
#	258011
#
# Disc length: 3579 seconds
#
# Revision: 0
# Processed by: cddbd v1.5.2PL0 Copyright (c) Steve Scherf et al.
# Submitted via: audiograbber 1.83.01
#
DISCID=2a0df914
DTITLE=Frank Sinatra - A Night in Town
DYEAR=1960
DGENRE=Blues
TTITLE0=The lady is a tramp
TTITLE1=I could write a book
TTITLE2=Autumn leaves
TTITLE3=Anything goes
TTITLE4=You make me feel so young
TTITLE5=I cover the waterfront
TTITLE6=Chicago
TTITLE7=Stars fell on Alabama
TTITLE8=Close to you
TTITLE9=It's easy to remember
TTITLE10=I've got you under my skin
TTITLE11=Old devil moon
TTITLE12=Makin' whoopee
TTITLE13=Our love is here to stay
TTITLE14=Who wants T be A Millionair
TTITLE15=Pennies from heaven
TTITLE16=Well did you Evah
TTITLE17=I's a fool to want you
TTITLE18=Baby won't you please come home
TTITLE19=Nice work if you can get it
EXTD=
EXTT0=
EXTT1=
EXTT2=
EXTT3=
EXTT4=
EXTT5=
EXTT6=
EXTT7=
EXTT8=
EXTT9=
EXTT10=
EXTT11=
EXTT12=
EXTT13=
EXTT14=
EXTT15=
EXTT16=
EXTT17=
EXTT18=
EXTT19=
PLAYORDER=
